<svg xmlns="http://www.w3.org/2000/svg" xmlns:xlink="http://www.w3.org/1999/xlink" width="500" zoomAndPan="magnify" viewBox="0 0 375 374.999991" height="500" preserveAspectRatio="xMidYMid meet" version="1.0"><defs><g/><clipPath id="0a4a8499de"><rect x="0" width="375" y="0" height="173"/></clipPath></defs><g transform="matrix(1, 0, 0, 1, 0, 101)"><g clip-path="url(#0a4a8499de)"><g fill="#2b2b2b" fill-opacity="1"><g transform="translate(0.0000045, 129.582433)"><g><path d="M 3.625 -120.625 L 120.453125 -120.625 L 120.453125 0 C 100.117188 0 80.5625 0 61.78125 0 C 43 0 23.613281 0 3.625 0 Z M 60.3125 -49.796875 L 63.765625 -49.796875 L 63.765625 -71 L 60.3125 -71 Z M 60.3125 -49.796875 "/></g></g></g><g fill="#2b2b2b" fill-opacity="1"><g transform="translate(123.90509, 129.582433)"><g><path d="M 124.078125 0 L 76.171875 0 L 54.96875 -21.890625 L 54.28125 -21.203125 L 63.9375 -8.09375 L 63.9375 0 L 3.453125 0 L 3.453125 -120.625 L 51.1875 -120.625 L 73.578125 -92.71875 L 74.28125 -93.40625 L 63.9375 -109.59375 L 63.9375 -120.625 L 124.078125 -120.625 Z M 124.078125 0 "/></g></g><g transform="translate(251.429125, 129.582433)"><g><path d="M 3.453125 0 L 3.453125 -120.625 L 120.109375 -120.625 L 120.109375 -82.203125 L 102.53125 -82.203125 L 102.53125 -79.09375 L 120.109375 -79.09375 L 120.109375 -41.359375 L 102.53125 -41.359375 L 102.53125 -38.25 L 120.109375 -38.25 L 120.109375 0 Z M 3.453125 0 "/></g></g></g></g></g></svg>